HIERARCHY
ROOT Hips
{
	OFFSET 0.00000 0.00000 0.00000
	CHANNELS 6 Xposition Yposition Zposition Zrotation Yrotation Xrotation 
	JOINT LHipJoint
	{
		OFFSET 0 0 0
		CHANNELS 3 Zrotation Yrotation Xrotation
		JOINT LeftHip
		{
			OFFSET 1.57338 -1.94743 0.52196
			CHANNELS 3 Zrotation Yrotation Xrotation
			JOINT LeftKnee
			{
				OFFSET 2.60333 -7.15259 0.00000
				CHANNELS 3 Zrotation Yrotation Xrotation
				JOINT LeftAnkle
				{
					OFFSET 2.77855 -7.63400 0.00000
					CHANNELS 3 Zrotation Yrotation Xrotation
					JOINT LeftToe
					{
						OFFSET 0.19847 -0.54529 2.28466
						CHANNELS 3 Zrotation Yrotation Xrotation
						End Site
						{
							OFFSET 0.00000 -0.00000 1.17993
						}
					}
				}
			}
		}
	}
	JOINT RHipJoint
	{
		OFFSET 0 0 0
		CHANNELS 3 Zrotation Yrotation Xrotation
		JOINT RightHip
		{
			OFFSET -1.61527 -1.94743 0.52196
			CHANNELS 3 Zrotation Yrotation Xrotation
			JOINT RightKnee
			{
				OFFSET -2.53829 -6.97390 0.00000
				CHANNELS 3 Zrotation Yrotation Xrotation
				JOINT RightAnkle
				{
					OFFSET -2.80762 -7.71387 0.00000
					CHANNELS 3 Zrotation Yrotation Xrotation
					JOINT RightToe
					{
						OFFSET -0.30536 -0.83898 2.28801
						CHANNELS 3 Zrotation Yrotation Xrotation
						End Site
						{
							OFFSET -0.00000 -0.00000 1.21323
						}
					}
				}
			}
		}
	}
	JOINT lowerback
	{
		OFFSET 0 0 0
		CHANNELS 3 Zrotation Yrotation Xrotation
		JOINT Chest
		{
			OFFSET -0.04381 1.99497 -0.19778
			CHANNELS 3 Zrotation Yrotation Xrotation
			JOINT Chest2
			{
				OFFSET -0.01959 2.01295 -0.04372
				CHANNELS 3 Zrotation Yrotation Xrotation
				JOINT lowerneck
				{
					OFFSET 0 0 0
					CHANNELS 3 Zrotation Yrotation Xrotation
					JOINT Neck
					{
						OFFSET -0.05459 1.76913 0.09708
						CHANNELS 3 Zrotation Yrotation Xrotation
						JOINT Head
						{
							OFFSET 0.09461 1.77368 -0.11172
							CHANNELS 3 Zrotation Yrotation Xrotation
							End Site
							{
								OFFSET 0.03812 1.78157 -0.04834
							}
						}
					}
				}
				JOINT LeftCollar
				{
					OFFSET 0 0 0
					CHANNELS 3 Zrotation Yrotation Xrotation
					JOINT LeftShoulder
					{
						OFFSET 3.50922 1.24034 -0.28866
CHANNELS 3 Zrotation Xrotation Yrotation
						JOINT LeftElbow
						{
OFFSET 0 -5.401880 0.000000
CHANNELS 3 Zrotation Xrotation Yrotation
							JOINT LeftWrist
							{
OFFSET 0 -3.685590 0.000000
CHANNELS 3 Zrotation Xrotation Yrotation
								JOINT lhand
								{
									OFFSET 0 0 0
CHANNELS 3 Zrotation Xrotation Yrotation
									JOINT LFingers
									{
OFFSET 0 -0.617530 0.000000
CHANNELS 3 Zrotation Xrotation Yrotation
										End Site
										{
OFFSET 0 -0.497870 0.000000
										}
									}
								}
								JOINT LThumb
								{
OFFSET 0 0.000000 0.000000
CHANNELS 3 Zrotation Xrotation Yrotation
									End Site
									{
OFFSET 0 -0.505470 0.505470
									}
								}
							}
						}
					}
				}
				JOINT RightCollar
				{
					OFFSET 0 0 0
					CHANNELS 3 Zrotation Yrotation Xrotation
					JOINT RightShoulder
					{
						OFFSET -2.95373 1.39649 -0.27346
CHANNELS 3 Zrotation Xrotation Yrotation
						JOINT RightElbow
						{
OFFSET 0 -6.106700 -0.000000
CHANNELS 3 Zrotation Xrotation Yrotation
							JOINT RightWrist
							{
OFFSET 0 -3.630520 0.000000
CHANNELS 3 Zrotation Xrotation Yrotation
								JOINT rhand
								{
									OFFSET 0 0 0
CHANNELS 3 Zrotation Xrotation Yrotation
									JOINT RFingers
									{
OFFSET 0 -0.583850 0.000000
CHANNELS 3 Zrotation Xrotation Yrotation
										End Site
										{
OFFSET 0 -0.470710 0.000000
										}
									}
								}
								JOINT RThumb
								{
OFFSET 0 0.000000 0.000000
CHANNELS 3 Zrotation Xrotation Yrotation
									End Site
									{
OFFSET 0 -0.477900 0.477900
									}
								}
							}
						}
					}
				}
			}
		}
	}
}
MOTION
Frames: 5
Frame Time: 0.008333333333333333
-2.356284 18.584980 2.649496 -0.639624 -15.570732 1.957684 0.000000 0.000000 0.000000 -11.042919 -8.422807 4.240805 0.646035 5.141735 14.313207 -0.004565 17.967371 -25.406432 0.360236 -3.855585 -10.670788 0.000000 0.000000 0.000000 13.416850 25.953104 -3.898877 -1.797350 -8.430376 24.029304 -0.198818 -11.392022 -18.764299 -0.307008 3.561967 -9.847507 -0.343595 1.287669 6.394024 -2.365229 1.626516 1.462242 -2.373027 0.806872 -2.016785 -9.648499 -10.411683 -11.411676 16.295278 -13.903034 3.296161 5.394558 -6.307408 4.731882 0.000000 0.000000 0.000000 17.098894 -3.205826 -26.581819 16.335670 -25.973561 3.791868 28.706134 26.001509 -17.035999 0.000000 0.000000 0.000000 -7.125000 0.000000 0.000000 0.808678 49.235170 -0.084555 0.000000 0.000000 0.000000 -72.510651 -43.130226 60.391394 -79.797178 -59.602425 -51.175950 -59.726667 27.130261 -14.242499 0.000000 0.000000 0.000000 7.125000 0.000000 0.000000 -20.202732 4.578683 -19.826331
-2.715271 18.505480 2.722728 -0.680270 -15.407475 1.495590 0.000000 0.000000 0.000000 -9.850092 -7.466157 3.951141 0.789564 5.672105 15.836040 0.055856 17.387622 -25.127291 0.474098 -4.415448 -12.248451 0.000000 0.000000 0.000000 14.818463 25.483285 -4.768559 -2.277622 -9.421907 27.124263 -0.445993 -9.883341 -19.833701 -0.253126 3.237229 -8.939920 -0.199248 0.079359 6.371588 -2.605071 0.021278 1.427791 -2.574686 0.004450 -2.099939 -10.201704 -9.931533 -8.737684 17.053433 -13.103806 0.666297 5.962634 -6.112255 3.500158 0.000000 0.000000 0.000000 17.570074 -0.672352 -20.477087 13.059654 -21.373680 2.475551 27.266616 26.889720 -17.290443 0.000000 0.000000 0.000000 -7.125000 0.000000 0.000000 -0.654415 49.278598 0.069059 0.000000 0.000000 0.000000 -81.515809 -45.746521 42.872337 -85.694622 -59.929819 -56.272370 -61.666298 21.486451 -14.825999 0.000000 0.000000 0.000000 7.125000 0.000000 0.000000 -21.077269 2.421610 -21.713837
-3.153750 18.527032 2.830478 -1.176345 -15.147405 1.021172 0.000000 0.000000 0.000000 -7.780476 -6.040329 3.351356 0.994661 6.347298 17.795402 -0.051928 16.783686 -23.306048 0.537204 -4.695940 -13.043515 0.000000 0.000000 0.000000 17.246110 24.418408 -3.456130 -2.273848 -9.414706 27.101256 -0.524277 -9.181478 -19.964220 -0.264268 3.307006 -9.134809 1.113131 -0.706164 6.135462 -2.968145 -0.951460 1.153961 -3.614780 -0.494027 -2.319268 -9.720967 -10.593829 -9.568898 15.616293 -14.117742 2.530825 5.265532 -6.556129 4.169045 0.000000 0.000000 0.000000 18.003574 0.239803 -9.741183 9.666050 -16.215288 1.380384 27.336450 34.841410 -20.206674 0.000000 0.000000 0.000000 -7.125000 0.000000 0.000000 -1.163119 52.481763 0.214247 0.000000 0.000000 0.000000 -97.713109 -46.717009 18.563269 -77.935832 -59.441979 -49.571779 -64.134206 21.536617 -12.384697 0.000000 0.000000 0.000000 7.125000 0.000000 0.000000 -23.117369 4.932137 -23.050013
-3.614845 18.631041 2.940244 -0.526774 -15.486081 0.468656 0.000000 0.000000 0.000000 -6.453346 -4.413535 2.961492 1.127590 6.744527 18.960749 -0.458448 16.297563 -17.894514 0.739874 -5.494325 -15.324075 0.000000 0.000000 0.000000 18.619220 24.049272 -0.987331 -1.983649 -8.831738 25.270513 -0.510927 -9.283105 -19.922250 -0.167377 2.635767 -7.266215 1.356852 -0.771868 5.627699 -3.751267 -1.051434 0.829267 -4.565921 -0.555313 -2.397197 -9.449636 -11.171616 -9.320201 15.055270 -14.909637 2.550073 4.974838 -6.972756 4.161360 0.000000 0.000000 0.000000 18.431152 1.212001 -1.357277 8.900177 -15.001133 1.174177 28.334473 34.545862 -17.475037 0.000000 0.000000 0.000000 -7.125000 0.000000 0.000000 0.371491 49.659883 -0.042058 0.000000 0.000000 0.000000 -112.650241 -45.331509 -4.852424 -59.627665 -56.204393 -34.032714 -62.848475 17.556363 -12.343063 0.000000 0.000000 0.000000 7.125000 0.000000 0.000000 -22.456836 5.864304 -21.828953
-4.020007 18.727405 3.023209 -0.822352 -15.366703 0.627125 0.000000 0.000000 0.000000 -4.170231 -4.434606 2.111955 1.303141 7.231730 20.403648 -0.683827 15.712742 -12.444866 1.275740 -7.158428 -20.185505 0.000000 0.000000 0.000000 20.503200 23.157911 0.832200 -1.625019 -8.036921 22.826205 -0.382673 -9.763059 -19.023524 -0.185047 2.770873 -7.641493 2.448340 -0.672320 5.297714 -4.000139 -0.868710 0.430719 -5.467660 -0.487325 -2.628410 -9.361883 -11.539575 -9.701838 13.386062 -15.211721 2.386638 4.412434 -7.167526 4.050192 0.000000 0.000000 0.000000 18.153479 3.757668 -5.346683 11.205657 -18.602642 1.840985 27.996049 25.437839 -18.792826 0.000000 0.000000 0.000000 -7.125000 0.000000 0.000000 -0.196704 51.055606 0.029409 0.000000 0.000000 0.000000 -122.575719 -45.516067 -29.678111 -40.420663 -48.315963 -18.753197 -60.963588 18.322252 -6.760199 0.000000 0.000000 0.000000 7.125000 0.000000 0.000000 -23.313436 16.823713 -17.052332
